<?xml version="1.0" encoding="UTF-8"?>
<svg version="1.1" xmlns="http://www.w3.org/2000/svg" width="512" height="512">
<path d="M0 0 C1.01790619 0.00215515 2.03581238 0.0043103 3.08456421 0.00653076 C17.69363523 0.05620146 32.02575853 0.30709809 46.375 3.3125 C47.34985352 3.51117676 48.32470703 3.70985352 49.32910156 3.91455078 C97.7109774 14.03517194 141.69928269 35.9516877 177.375 70.3125 C178.3640332 71.26068604 178.3640332 71.26068604 179.37304688 72.22802734 C188.86130305 81.37247479 197.6012044 90.66984009 205.375 101.3125 C206.23306152 102.46355017 207.09113451 103.61459177 207.94921875 104.765625 C213.98736829 112.95680614 219.34595521 121.47054105 224.375 130.3125 C224.73948242 130.94430176 225.10396484 131.57610352 225.47949219 132.22705078 C247.08534998 169.97532572 256.85198095 212.74189997 256.6875 255.9375 C256.68534485 256.95540619 256.6831897 257.97331238 256.68096924 259.02206421 C256.63129854 273.63113523 256.38040191 287.96325853 253.375 302.3125 C253.07698486 303.77478027 253.07698486 303.77478027 252.77294922 305.26660156 C242.65232806 353.6484774 220.7358123 397.63678269 186.375 433.3125 C185.74287598 433.97185547 185.11075195 434.63121094 184.45947266 435.31054688 C175.31502521 444.79880305 166.01765991 453.5387044 155.375 461.3125 C154.22394983 462.17056152 153.07290823 463.02863451 151.921875 463.88671875 C143.73224019 469.92427396 135.22961724 475.30707302 126.375 480.3125 C125.66778809 480.7146875 124.96057617 481.116875 124.23193359 481.53125 C101.09654164 494.5566741 75.92537591 503.30551461 49.9375 508.625 C49.21860596 508.77235596 48.49971191 508.91971191 47.7590332 509.0715332 C33.08339502 511.86090125 18.55831162 512.66142619 3.64770508 512.62817383 C0.70811513 512.6250221 -2.2304558 512.64854926 -5.16992188 512.67382812 C-18.54306192 512.71848737 -31.43916711 511.51301542 -44.625 509.3125 C-46.33055054 509.03031616 -46.33055054 509.03031616 -48.07055664 508.74243164 C-91.33802759 500.97044532 -132.38793216 480.98345309 -165.625 452.3125 C-166.37007813 451.67828125 -167.11515625 451.0440625 -167.8828125 450.390625 C-181.38779833 438.57948485 -194.05918743 425.82889772 -204.625 411.3125 C-205.48149066 410.16255169 -206.33826433 409.01281411 -207.1953125 407.86328125 C-213.23534209 399.67315742 -218.61867614 391.16870382 -223.625 382.3125 C-224.0271875 381.60528809 -224.429375 380.89807617 -224.84375 380.16943359 C-237.8691741 357.03404164 -246.61801461 331.86287591 -251.9375 305.875 C-252.08485596 305.15610596 -252.23221191 304.43721191 -252.3840332 303.6965332 C-255.35789088 288.05024391 -255.99800362 272.57681954 -255.9375 256.6875 C-255.93534485 255.66959381 -255.9331897 254.65168762 -255.93096924 253.60293579 C-255.88129854 238.99386477 -255.63040191 224.66174147 -252.625 210.3125 C-252.42632324 209.33764648 -252.22764648 208.36279297 -252.02294922 207.35839844 C-241.90232806 158.9765226 -219.9858123 114.98821731 -185.625 79.3125 C-184.99287598 78.65314453 -184.36075195 77.99378906 -183.70947266 77.31445312 C-174.56502521 67.82619695 -165.26765991 59.0862956 -154.625 51.3125 C-153.47394983 50.45443848 -152.32290823 49.59636549 -151.171875 48.73828125 C-142.98224019 42.70072604 -134.47961724 37.31792698 -125.625 32.3125 C-124.91778809 31.9103125 -124.21057617 31.508125 -123.48193359 31.09375 C-100.34654164 18.0683259 -75.17537591 9.31948539 -49.1875 4 C-48.46860596 3.85264404 -47.74971191 3.70528809 -47.0090332 3.5534668 C-31.36274391 0.57960912 -15.88931954 -0.06050362 0 0 Z M-63.34375 151.23046875 C-69.41036277 158.91781876 -71.78645647 166.32830967 -71.6875 176.125 C-71.67847656 177.28644531 -71.66945313 178.44789063 -71.66015625 179.64453125 C-71.64855469 180.52496094 -71.63695312 181.40539062 -71.625 182.3125 C-72.93581543 182.29155273 -74.24663086 182.27060547 -75.59716797 182.24902344 C-80.49858512 182.17617413 -85.3999552 182.13053771 -90.30175781 182.09277344 C-92.41609772 182.07275984 -94.53038299 182.04554028 -96.64453125 182.01074219 C-99.69805448 181.96177059 -102.75084078 181.93942818 -105.8046875 181.921875 C-106.73739471 181.90122986 -107.67010193 181.88058472 -108.631073 181.85931396 C-117.44716461 181.85635505 -125.54583374 184.36963198 -132.08984375 190.48046875 C-140.0958666 200.03473011 -139.77457997 210.7128286 -139.77026367 222.5246582 C-139.77325966 223.85920302 -139.7766632 225.19374697 -139.78044128 226.52828979 C-139.7892409 230.1379404 -139.7916177 233.74756727 -139.79225707 237.35722756 C-139.79296989 239.61688433 -139.79510859 241.87653514 -139.79775429 244.13619041 C-139.80699447 252.03212235 -139.81109085 259.92803745 -139.81030273 267.82397461 C-139.80970235 275.1635615 -139.8202498 282.5030748 -139.8360464 289.84264308 C-139.84915727 296.16136306 -139.85448514 302.48005908 -139.85384732 308.79879254 C-139.85359337 312.56499301 -139.85638747 316.33112802 -139.86702538 320.09731483 C-139.87676625 323.64241043 -139.87674489 327.18737879 -139.86950874 330.7324791 C-139.86797868 332.63894524 -139.87626768 334.54541153 -139.88494873 336.45185852 C-139.84492511 347.48588533 -139.06537628 356.74131764 -131.625 365.3125 C-124.40962947 372.02480685 -117.66444647 373.61209903 -108.02474976 373.59338379 C-106.58418258 373.60229716 -106.58418258 373.60229716 -105.11451304 373.61139059 C-101.89971152 373.6287195 -98.68505934 373.63177722 -95.47021484 373.63476562 C-93.16370324 373.64402524 -90.85719469 373.654075 -88.5506897 373.66485596 C-82.2859774 373.69107808 -76.02130795 373.70398898 -69.75654936 373.71287727 C-65.84037546 373.71874335 -61.92421322 373.72695388 -58.0080452 373.73588562 C-47.15277476 373.76009826 -36.29751719 373.78086363 -25.44222069 373.7876358 C-24.7480939 373.78807494 -24.05396712 373.78851407 -23.33880619 373.78896651 C-22.64307258 373.78940306 -21.94733896 373.78983962 -21.23052251 373.7902894 C-19.82083662 373.79117632 -18.41115073 373.79206944 -17.00146484 373.79296875 C-16.30222049 373.79341161 -15.60297614 373.79385447 -14.88254257 373.79431075 C-3.56155728 373.80220065 7.75917006 373.8370928 19.08005579 373.88368779 C30.71944608 373.93120461 42.35869442 373.95552843 53.99818265 373.95837164 C60.52673755 373.96046512 67.05492852 373.97222416 73.5833931 374.00801086 C79.72803085 374.04103855 85.8720324 374.04525178 92.01672745 374.02773285 C94.26606453 374.02619557 96.51543628 374.03483201 98.76468658 374.05464935 C116.93503721 374.33211786 116.93503721 374.33211786 132.37258339 365.50669098 C141.09678285 356.41023341 140.52455444 344.84232118 140.52026367 333.1003418 C140.52325966 331.76579698 140.5266632 330.43125303 140.53044128 329.09671021 C140.5392409 325.4870596 140.5416177 321.87743273 140.54225707 318.26777244 C140.54296989 316.00811567 140.54510859 313.74846486 140.54775429 311.48880959 C140.55699447 303.59287765 140.56109085 295.69696255 140.56030273 287.80102539 C140.55970235 280.4614385 140.5702498 273.1219252 140.5860464 265.78235692 C140.59915727 259.46363694 140.60448514 253.14494092 140.60384732 246.82620746 C140.60359337 243.06000699 140.60638747 239.29387198 140.61702538 235.52768517 C140.62676625 231.98258957 140.62674489 228.43762121 140.61950874 224.8925209 C140.61797868 222.98605476 140.62626768 221.07958847 140.63494873 219.17314148 C140.5954078 208.27218763 139.92374226 198.69464905 132.375 190.3125 C124.39395075 183.6449687 117.13092766 182.00690117 106.9453125 182.1171875 C105.95498016 182.1200174 104.96464783 182.12284729 103.94430542 182.12576294 C100.79607824 182.1369153 97.64814051 182.16201093 94.5 182.1875 C92.35937912 182.19753618 90.21875376 182.20666092 88.078125 182.21484375 C82.84365203 182.23683842 77.6093467 182.27026667 72.375 182.3125 C72.38805176 181.4349707 72.40110352 180.55744141 72.41455078 179.65332031 C72.42470215 178.49413086 72.43485352 177.33494141 72.4453125 176.140625 C72.45836426 174.9949707 72.47141602 173.84931641 72.48486328 172.66894531 C72.17638359 163.24454808 68.14810889 155.34331195 61.7109375 148.55859375 C53.70773898 141.26800879 45.74929898 139.17278326 35.08740234 139.13549805 C34.26553436 139.12892685 33.44366638 139.12235565 32.59689331 139.11558533 C29.88490697 139.09592409 27.1729759 139.08420425 24.4609375 139.07421875 C23.53045216 139.07014322 22.59996681 139.0660677 21.64128494 139.06186867 C16.71382116 139.04103605 11.78638496 139.02672357 6.85888672 139.01733398 C1.79186113 139.00629008 -3.27472286 138.97190535 -8.34159279 138.93216228 C-12.25719978 138.9059055 -16.17270309 138.89763401 -20.08839035 138.89405251 C-21.95493926 138.88920806 -23.82148421 138.87765585 -25.68794632 138.85901451 C-40.21268536 138.72299201 -53.03470548 139.72651225 -63.34375 151.23046875 Z " fill="#000000" transform="translate(255.625,-0.3125)"/>
<path d="M0 0 C0.7894249 -0.00686325 1.57884979 -0.0137265 2.39219666 -0.02079773 C4.98829397 -0.03902149 7.5837844 -0.03523464 10.17993164 -0.02954102 C11.99304907 -0.03410498 13.80616476 -0.03941119 15.61927795 -0.04542542 C19.41455118 -0.05434785 23.20961388 -0.05194333 27.00488281 -0.04199219 C31.85823769 -0.03050411 36.71086481 -0.0507158 41.56412411 -0.07990932 C45.30718061 -0.0982931 49.05006342 -0.09797453 52.79315376 -0.0922718 C54.58204736 -0.09211885 56.37095292 -0.09814148 58.15980339 -0.11056328 C60.66558804 -0.12551286 63.17003716 -0.11476809 65.67578125 -0.09765625 C66.40794861 -0.10732422 67.14011597 -0.11699219 67.89447021 -0.12695312 C73.40656007 -0.0484965 76.46786419 1.35636367 80.90258789 4.40405273 C84.46522575 9.33358022 84.35862688 14.17623706 84.27758789 20.02905273 C84.28918945 20.87467773 84.30079102 21.72030273 84.31274414 22.59155273 C84.30887695 23.40881836 84.30500977 24.22608398 84.30102539 25.06811523 C84.2976416 25.80497559 84.29425781 26.54183594 84.29077148 27.30102539 C83.74696766 30.24714245 83.12537434 31.33771224 80.90258789 33.40405273 C77.87894001 34.02911224 74.8751259 33.94988203 71.79711914 33.92163086 C70.86515717 33.92864014 69.93319519 33.93564941 68.97299194 33.94287109 C65.88672247 33.96050275 62.80136699 33.94880985 59.71508789 33.93530273 C57.57421695 33.93799616 55.43334721 33.94187732 53.29248047 33.94689941 C48.80334844 33.95280148 44.31453454 33.94420853 39.82543945 33.92553711 C34.06472961 33.9027474 28.30476512 33.91586666 22.54408264 33.93982697 C18.1226233 33.95426567 13.70134133 33.94968777 9.27987671 33.9393158 C7.1555472 33.93664318 5.03120171 33.93993695 2.90689087 33.94923401 C-0.0598225 33.95936772 -3.02532075 33.9439428 -5.99194336 33.92163086 C-6.8741153 33.92972778 -7.75628723 33.93782471 -8.66519165 33.94616699 C-14.6039799 33.86321785 -14.6039799 33.86321785 -17.14125061 31.50215149 C-18.84404519 27.76572077 -18.5689951 24.13503531 -18.53491211 20.09155273 C-18.55489258 19.26204102 -18.57487305 18.4325293 -18.59545898 17.57788086 C-18.59081642 11.69574641 -17.69048102 8.12107664 -14.09741211 3.40405273 C-9.43642367 0.46097508 -5.38623181 -0.03302533 0 0 Z " fill="#000000" transform="translate(223.097412109375,159.595947265625)"/>
</svg>
