<?xml version="1.0" encoding="UTF-8"?>
<svg version="1.1" xmlns="http://www.w3.org/2000/svg" width="512" height="512">
<path d="M0 0 C0.6707959 0.22236328 1.3415918 0.44472656 2.03271484 0.67382812 C26.18649877 8.78765878 49.04863711 21.18561089 69 37 C70.25296875 37.96486328 70.25296875 37.96486328 71.53125 38.94921875 C78.35499275 44.27216998 84.73097572 50.04404044 91 56 C91.53560547 56.50692383 92.07121094 57.01384766 92.62304688 57.53613281 C100.36681808 64.91619538 107.26303904 72.64612869 113.66162109 81.21728516 C114.99065497 82.98755247 116.34611651 84.73463894 117.70703125 86.48046875 C125.56030366 96.69366077 131.93412278 107.65004117 138 119 C138.40992188 119.76231934 138.81984375 120.52463867 139.2421875 121.31005859 C153.07710081 147.47684723 161.26449789 177.60925636 164 207 C164.11085938 208.12921875 164.22171875 209.2584375 164.3359375 210.421875 C167.20718679 244.10085311 162.81528703 278.01542084 152 310 C151.66645508 311.00619385 151.66645508 311.00619385 151.32617188 312.03271484 C140.02954148 345.66126608 120.60014031 375.63434479 96 401 C95.48614746 401.53963379 94.97229492 402.07926758 94.44287109 402.63525391 C87.06631404 410.37485283 79.35007537 417.2658728 70.78271484 423.66162109 C69.01244753 424.99065497 67.26536106 426.34611651 65.51953125 427.70703125 C55.30633923 435.56030366 44.34995883 441.93412278 33 448 C32.23768066 448.40992188 31.47536133 448.81984375 30.68994141 449.2421875 C-23.37355792 477.82665909 -90.2635066 482.42262853 -148.5 465.125 C-186.53671913 453.29185974 -220.38122695 433.75508169 -249 406 C-249.53963379 405.48614746 -250.07926758 404.97229492 -250.63525391 404.44287109 C-258.37485283 397.06631404 -265.2658728 389.35007537 -271.66162109 380.78271484 C-272.99065497 379.01244753 -274.34611651 377.26536106 -275.70703125 375.51953125 C-283.56030366 365.30633923 -289.93412278 354.34995883 -296 343 C-296.61488281 341.856521 -296.61488281 341.856521 -297.2421875 340.68994141 C-326.10513531 286.09974356 -330.51592242 218.735879 -312.6171875 160.07421875 C-300.77946662 122.51194519 -281.43690845 89.29069879 -254 61 C-253.48614746 60.46036621 -252.97229492 59.92073242 -252.44287109 59.36474609 C-245.06631404 51.62514717 -237.35007537 44.7341272 -228.78271484 38.33837891 C-227.01244753 37.00934503 -225.26536106 35.65388349 -223.51953125 34.29296875 C-213.30633923 26.43969634 -202.34995883 20.06587722 -191 14 C-190.23768066 13.59007813 -189.47536133 13.18015625 -188.68994141 12.7578125 C-131.39448916 -17.53545833 -60.85056751 -20.57605167 0 0 Z M-185 123 C-191.78979291 130.03228552 -194.97011474 138.27234749 -195 148 C-193.90475343 162.16677624 -181.86217061 171.53982369 -172.4140625 180.87890625 C-170.9870852 182.30027974 -169.56077516 183.72232339 -168.13510132 185.14500427 C-164.40336592 188.86535278 -160.66270649 192.5765984 -156.92004395 196.28594971 C-153.09355314 200.08160634 -149.27567098 203.88590086 -145.45703125 207.68945312 C-137.9797015 215.13472746 -130.49290488 222.57040291 -123 230 C-124.64560804 234.26175457 -127.83999141 237.07724438 -131.03857422 240.20214844 C-131.65666962 240.81411072 -132.27476501 241.426073 -132.91159058 242.05657959 C-134.25283468 243.38353039 -135.59630724 244.70823167 -136.94173813 246.03093719 C-139.07395725 248.12833001 -141.1989716 250.23277591 -143.322052 252.3394165 C-149.35911168 258.32761888 -155.40713001 264.30465889 -161.46435547 270.27246094 C-165.17104531 273.92542101 -168.86780126 277.58819637 -172.55871964 281.25708771 C-173.96388751 282.64987946 -175.37283405 284.03887008 -176.78567123 285.42388153 C-178.7673087 287.36684717 -180.73609451 289.32204689 -182.70263672 291.28027344 C-183.28356079 291.84367432 -183.86448486 292.4070752 -184.4630127 292.98754883 C-190.73129003 299.28604119 -194.90368125 307.39681486 -195.03515625 316.41015625 C-194.44453891 325.73038593 -190.88445234 333.63901984 -184 340 C-177.1278166 345.375131 -169.79523939 347.75821029 -161 347 C-150.51706143 344.9516097 -143.65375772 338.97506613 -136.30859375 331.53564453 C-135.69295059 330.92029343 -135.07730743 330.30494232 -134.44300842 329.67094421 C-132.43638672 327.66294409 -130.43691721 325.64798415 -128.4375 323.6328125 C-127.03689732 322.2284744 -125.63584851 320.82458111 -124.234375 319.42111206 C-120.56721964 315.74636196 -116.90611338 312.06564331 -113.24627686 308.38360596 C-109.50248762 304.61926825 -105.7529498 300.86066597 -102.00390625 297.1015625 C-94.66366542 289.73994524 -87.32980872 282.37200334 -80 275 C-75.74652236 276.64300715 -72.94380007 279.82605403 -69.82958984 283.02270508 C-69.22084015 283.63919418 -68.61209045 284.25568329 -67.9848938 284.89085388 C-66.66452791 286.22885927 -65.34637811 287.56905434 -64.03019333 288.91117287 C-61.94101779 291.03982738 -59.84435439 293.16082775 -57.74526978 295.27970886 C-51.77814646 301.30480029 -45.82059379 307.3392151 -39.87841797 313.38891602 C-36.240681 317.091393 -32.59060558 320.781328 -28.93266678 324.46384239 C-27.54619852 325.86450085 -26.16440735 327.26980611 -24.78757858 328.67994118 C-15.56946068 338.11780524 -7.61584662 346.16738458 6.1875 347.25 C15.85590923 346.61600595 23.02082539 343.14853429 29.72265625 336.21875 C35.07507072 329.801113 37.45572016 322.21834464 36.9375 313.875 C34.60935097 298.38668226 21.7107589 288.56969794 11.19140625 278.09375 C9.85597673 276.7601887 8.52077015 275.42640412 7.18577576 274.09240723 C3.69460872 270.60503352 0.20044766 267.1206751 -3.29437256 263.63696289 C-6.86930632 260.07231217 -10.44136294 256.50478083 -14.01367188 252.9375 C-21.00632174 245.95553122 -28.00214201 238.97674853 -35 232 C-33.35699285 227.74652236 -30.17394597 224.94380007 -26.97729492 221.82958984 C-26.36080582 221.22084015 -25.74431671 220.61209045 -25.10914612 219.9848938 C-23.77114073 218.66452791 -22.43094566 217.34637811 -21.08882713 216.03019333 C-18.96017262 213.94101779 -16.83917225 211.84435439 -14.72029114 209.74526978 C-8.69519971 203.77814646 -2.6607849 197.82059379 3.38891602 191.87841797 C7.091393 188.240681 10.781328 184.59060558 14.46384239 180.93266678 C15.86450085 179.54619852 17.26980611 178.16440735 18.67994118 176.78757858 C32.26457327 163.60697031 32.26457327 163.60697031 37.12890625 145.7265625 C36.74002026 137.50103449 33.44107437 130.1461812 28 124 C21.19754779 118.39727481 13.89818777 114.91959469 5 115 C-6.62214365 116.55981402 -13.67209308 122.34213358 -21.69140625 130.46435547 C-22.30704941 131.07970657 -22.92269257 131.69505768 -23.55699158 132.32905579 C-25.56361328 134.33705591 -27.56308279 136.35201585 -29.5625 138.3671875 C-30.96310268 139.7715256 -32.36415149 141.17541889 -33.765625 142.57888794 C-37.43278036 146.25363804 -41.09388662 149.93435669 -44.75372314 153.61639404 C-48.49751238 157.38073175 -52.2470502 161.13933403 -55.99609375 164.8984375 C-63.33633458 172.26005476 -70.67019128 179.62799666 -78 187 C-82.21544939 185.36151713 -85.00033358 182.2376156 -88.09448242 179.0690918 C-88.69508484 178.46235626 -89.29568726 177.85562073 -89.91448975 177.23049927 C-91.21688386 175.9138122 -92.51702817 174.59489679 -93.81517601 173.27402306 C-95.87502999 171.17932663 -97.94194882 169.09184968 -100.01106262 167.00630188 C-105.89266312 161.07586377 -111.76313546 155.13450476 -117.62426758 149.18383789 C-121.21235771 145.54194631 -124.81032063 141.91004873 -128.41439247 138.2839756 C-129.78124719 136.90476237 -131.14430317 135.52177304 -132.5033474 134.1348629 C-147.77903994 118.54892475 -164.89935447 107.5142986 -185 123 Z " fill="#435CDA" transform="translate(335,25)"/>
</svg>
