<?xml version="1.0" encoding="UTF-8"?>
<svg version="1.1" xmlns="http://www.w3.org/2000/svg" width="512" height="512">
<path d="M0 0 C1.24040794 -0.01475876 1.24040794 -0.01475876 2.50587463 -0.02981567 C51.70499148 -0.49416728 97.90292481 10.64143733 138.06640625 40.23828125 C139.59587891 41.33849609 139.59587891 41.33849609 141.15625 42.4609375 C187.76488182 76.97091335 217.85295957 128.9248439 226.54736328 186.01489258 C234.04170564 241.37737333 220.51783597 299.79967932 186.66088867 344.546875 C184.15782292 347.80062043 181.62343175 351.02675478 179.06640625 354.23828125 C180.64321769 358.05463389 183.04553961 360.45627362 185.95628357 363.34848022 C186.45815266 363.84994147 186.96002175 364.35140271 187.477099 364.86805975 C189.15899112 366.54622312 190.84791612 368.21712503 192.53686523 369.88818359 C193.74455061 371.09039319 194.95177404 372.29306698 196.15856934 373.49617004 C198.75801461 376.08590356 201.36048469 378.67254525 203.96526909 381.25690842 C208.08454765 385.34437858 212.19566161 389.43999389 216.30543518 393.53701782 C226.51545537 403.71294777 236.73472165 413.87957886 246.9588623 424.0413208 C254.90302582 431.93702642 262.8439801 439.83589336 270.77442795 447.74537814 C274.85840059 451.81783122 278.94921862 455.88324095 283.04530513 459.94350791 C285.59372843 462.47272386 288.13586161 465.00818976 290.67629242 467.54543114 C291.85439303 468.71951651 293.03507526 469.89101807 294.21853065 471.05970573 C295.8359059 472.65762401 297.4437136 474.26460821 299.04954529 475.87411499 C299.95122657 476.77043325 300.85290785 477.66675152 301.7819128 478.59023094 C306.72833271 484.32382969 307.57058384 489.05292736 307.34375 496.40234375 C306.71124356 502.86994484 303.54584197 506.0613843 298.78515625 510.0390625 C295.44781425 512.36761703 292.26708281 512.45552382 288.31640625 512.55078125 C287.3109375 512.58816406 286.30546875 512.62554688 285.26953125 512.6640625 C278.67069739 511.78690044 274.07855651 507.6250878 269.5171051 503.04974365 C268.7485929 502.28507636 268.7485929 502.28507636 267.9645552 501.50496125 C266.26548123 499.8107922 264.57728957 498.10619502 262.88891602 496.40136719 C261.66686896 495.17847315 260.44415941 493.95624084 259.22084045 492.73461914 C255.91295741 489.42759468 252.61438767 486.11142105 249.31744123 482.79349804 C245.86617859 479.32344598 242.40638404 475.86192182 238.94749451 472.3994751 C232.40390413 465.84657093 225.86799696 459.28605892 219.33483118 452.7227633 C211.89455938 445.24892683 204.4457387 437.78363559 196.99619591 430.31904173 C181.67675018 414.96826205 166.36804518 399.60680944 151.06640625 384.23828125 C148.31148158 385.58444698 145.91538316 386.99316812 143.4765625 388.85546875 C96.76758873 423.91170251 38.95795035 439.64886631 -19.16674805 431.71459961 C-52.15743977 426.67124271 -84.90485511 415.20350952 -111.93359375 395.23828125 C-112.86316895 394.56490723 -112.86316895 394.56490723 -113.81152344 393.87792969 C-124.95363893 385.77987621 -135.17355193 376.95350386 -144.93359375 367.23828125 C-145.47854492 366.6973584 -146.02349609 366.15643555 -146.58496094 365.59912109 C-173.92076708 338.11782068 -192.48294303 300.82143838 -200.93359375 263.23828125 C-201.14532227 262.29936035 -201.35705078 261.36043945 -201.57519531 260.39306641 C-207.33989034 233.40132085 -207.76458075 202.25250942 -201.93359375 175.23828125 C-201.76730469 174.40635254 -201.60101563 173.57442383 -201.4296875 172.71728516 C-192.70432976 129.43789494 -170.93408791 92.23877541 -139.93359375 61.23828125 C-139.32 60.57828125 -138.70640625 59.91828125 -138.07421875 59.23828125 C-130.83302314 51.5781735 -122.43428545 45.41514045 -113.93359375 39.23828125 C-113.30678711 38.78275879 -112.67998047 38.32723633 -112.03417969 37.85791016 C-80.14723889 14.99606598 -39.44831913 0.38959642 0 0 Z M-73.93359375 60.23828125 C-74.57135742 60.59148438 -75.20912109 60.9446875 -75.86621094 61.30859375 C-90.48687084 69.51564767 -102.84068215 79.6905419 -114.93359375 91.23828125 C-115.5884375 91.84027344 -116.24328125 92.44226563 -116.91796875 93.0625 C-148.99894661 123.38666241 -165.43441396 169.99160674 -166.93359375 213.23828125 C-167.63847522 260.41781945 -149.52668018 304.48015164 -117.80859375 339.11328125 C-117.34227539 339.62431396 -116.87595703 340.13534668 -116.39550781 340.66186523 C-94.98753286 363.57404384 -67.48162208 378.4008469 -37.86669922 387.63330078 C-36.28085625 388.12960274 -34.7018556 388.64771855 -33.125 389.171875 C9.14492404 402.22482754 57.28664837 393.44502702 95.75390625 373.42578125 C135.81271252 351.76873689 167.42154254 314.20397317 181.3125 270.76855469 C183.7159718 262.70198029 185.49623191 254.50278356 187.06640625 246.23828125 C187.19917969 245.55266113 187.33195312 244.86704102 187.46875 244.16064453 C193.91887985 209.14694809 187.25581712 172.07247606 172.06640625 140.23828125 C171.78152344 139.62758789 171.49664062 139.01689453 171.203125 138.38769531 C161.03852091 116.65447219 145.06138764 95.19041187 126.06640625 80.23828125 C125.54304688 79.81901367 125.0196875 79.39974609 124.48046875 78.96777344 C98.59820617 58.35520733 69.59972874 45.82739036 37.06640625 40.23828125 C36.10476562 40.05394531 35.143125 39.86960938 34.15234375 39.6796875 C-2.64788556 34.41585723 -41.55438669 42.27755006 -73.93359375 60.23828125 Z " fill="#000000" transform="translate(204.93359375,-0.23828125)"/>
<path d="M0 0 C4.63849454 3.75215801 7.4866675 7.4315533 8.25 13.50390625 C8.77020554 24.1214348 4.73869917 28.59774595 -1.91015625 36.36328125 C-18.1463502 55.46148931 -23.95584342 78.46839166 -22.93701172 103.18139648 C-22.7329513 110.68262536 -24.84080809 116.17220672 -30.09765625 121.73828125 C-35.39218484 125.44445126 -39.66145787 126.16736114 -46.09765625 125.73828125 C-51.77386237 124.54155694 -55.18224769 122.17043285 -58.87109375 117.75 C-61.91507813 112.75747785 -62.50453624 107.53279008 -62.78515625 101.80078125 C-62.82278076 101.05425293 -62.86040527 100.30772461 -62.89916992 99.53857422 C-64.45847512 62.46874428 -50.14098421 30.4177271 -25.7734375 3.234375 C-18.458443 -3.58939359 -8.76561284 -5.27242635 0 0 Z " fill="#000000" transform="translate(139.09765625,113.26171875)"/>
</svg>
